<svg width="280" height="37" viewBox="0 0 280 37" fill="none" xmlns="http://www.w3.org/2000/svg">
<path d="M271.595 31C271.481 31 271.361 30.9873 271.234 30.962C271.12 30.924 271.006 30.886 270.892 30.848L267.453 29.67L263.805 28.245C263.489 28.131 263.33 27.8143 263.33 27.295V14.983C263.33 14.679 263.432 14.4256 263.634 14.223L267.434 10.423C267.65 10.2076 267.903 10.1 268.194 10.1H274.16C274.452 10.1 274.705 10.2076 274.92 10.423L278.72 14.223C278.923 14.4256 279.024 14.679 279.024 14.983V22.773H269.619L269.543 24.559L271.766 25.376L276.117 26.003C276.307 26.0283 276.402 26.193 276.402 26.497V30.525C276.402 30.8416 276.244 31 275.927 31H271.595ZM271.253 19.524H271.481C272.051 19.524 272.495 19.334 272.811 18.954C273.128 18.5613 273.286 18.0166 273.286 17.32V17.073C273.286 16.389 273.128 15.8506 272.811 15.458C272.495 15.0653 272.051 14.869 271.481 14.869H271.234C270.69 14.869 270.259 15.0653 269.942 15.458C269.638 15.8506 269.486 16.389 269.486 17.073V17.32C269.486 18.0166 269.638 18.5613 269.942 18.954C270.259 19.334 270.696 19.524 271.253 19.524Z" fill="#8B5E3C"/>
<path d="M252.153 31C251.836 31 251.678 30.8416 251.678 30.525V10.537C251.678 10.2456 251.785 9.99231 252.001 9.77697L255.801 5.97697C256.003 5.77431 256.257 5.67297 256.561 5.67297H260.266C260.582 5.67297 260.741 5.83131 260.741 6.14797V11.221C260.741 11.5376 260.582 11.696 260.266 11.696H258.1V30.525C258.1 30.8416 257.941 31 257.625 31H252.153ZM250.785 20.037C250.468 20.037 250.31 19.8786 250.31 19.562V15.04C250.31 14.7233 250.468 14.565 250.785 14.565H260.266C260.582 14.565 260.741 14.7233 260.741 15.04V19.562C260.741 19.8786 260.582 20.037 260.266 20.037H250.785Z" fill="#8B5E3C"/>
<path d="M237.06 31C236.768 31 236.515 30.8923 236.3 30.677L232.5 26.877C232.297 26.6743 232.196 26.421 232.196 26.117V14.983C232.196 14.679 232.297 14.4256 232.5 14.223L236.3 10.423C236.515 10.2076 236.768 10.1 237.06 10.1H247.225C247.541 10.1 247.7 10.2583 247.7 10.575V30.525C247.7 30.8416 247.541 31 247.225 31H242.931C242.766 31 242.633 30.9746 242.532 30.924C242.443 30.8606 242.348 30.7783 242.247 30.677L241.297 29.727L240.347 30.677C240.144 30.8923 239.891 31 239.587 31H237.06ZM239.549 25.794H240.366C240.708 25.794 240.948 25.718 241.088 25.566C241.227 25.4013 241.297 25.148 241.297 24.806V15.306H239.568C239.213 15.306 238.96 15.3883 238.808 15.553C238.668 15.705 238.599 15.952 238.599 16.294V24.806C238.599 25.148 238.668 25.4013 238.808 25.566C238.96 25.718 239.207 25.794 239.549 25.794Z" fill="#8B5E3C"/>
<path d="M224.031 31C223.714 31 223.461 30.9176 223.271 30.753L220.573 28.207L217.248 24.331C217.108 24.179 217.02 24.0713 216.982 24.008C216.956 23.9446 216.944 23.818 216.944 23.628V13.026C216.944 12.836 216.963 12.7093 217.001 12.646C217.039 12.5826 217.121 12.475 217.248 12.323L220.136 8.92197L223.271 5.91997C223.397 5.80597 223.505 5.73631 223.594 5.71097C223.695 5.68564 223.841 5.67297 224.031 5.67297H228.971C229.287 5.67297 229.446 5.83131 229.446 6.14797V10.1C229.446 10.2013 229.433 10.309 229.408 10.423C229.395 10.5243 229.338 10.613 229.237 10.689L226.102 13.159L223.898 15.762V21.044L226.216 23.761L229.237 26.098C229.338 26.1613 229.395 26.2436 229.408 26.345C229.433 26.4336 229.446 26.535 229.446 26.649V30.525C229.446 30.8416 229.287 31 228.971 31H224.031Z" fill="#8B5E3C"/>
<path d="M197.744 31C197.428 31 197.269 30.8416 197.269 30.525V26.934C197.269 26.6426 197.364 26.4526 197.554 26.364L201.411 24.16V22.735L197.554 20.645C197.364 20.531 197.269 20.3346 197.269 20.056V13.862C197.269 13.7353 197.282 13.6276 197.307 13.539C197.345 13.4503 197.415 13.368 197.516 13.292L201.563 10.328C201.677 10.252 201.779 10.195 201.867 10.157C201.969 10.119 202.07 10.1 202.171 10.1H207.32C207.637 10.1 207.795 10.2583 207.795 10.575V14.071C207.795 14.2736 207.783 14.4193 207.757 14.508C207.732 14.584 207.662 14.6536 207.548 14.717L203.976 16.636V18.194L207.662 20.094C207.878 20.1953 207.985 20.3853 207.985 20.664V26.63C207.985 26.9466 207.878 27.2 207.662 27.39L203.748 30.753C203.546 30.9176 203.292 31 202.988 31H197.744Z" fill="#8B5E3C"/>
<path d="M188.565 31C188.248 31 188.09 30.8416 188.09 30.525V6.14797C188.09 5.83131 188.248 5.67297 188.565 5.67297H194.018C194.334 5.67297 194.493 5.83131 194.493 6.14797V30.525C194.493 30.8416 194.334 31 194.018 31H188.565Z" fill="#8B5E3C"/>
<path d="M179.049 31C178.733 31 178.574 30.8416 178.574 30.525V10.575C178.574 10.2583 178.733 10.1 179.049 10.1H184.483C184.8 10.1 184.958 10.2583 184.958 10.575V30.525C184.958 30.8416 184.8 31 184.483 31H179.049ZM178.954 8.52297C178.701 8.52297 178.574 8.39631 178.574 8.14297V5.72998C178.574 5.47664 178.701 5.34998 178.954 5.34998H184.616C184.844 5.34998 184.958 5.47664 184.958 5.72998V8.14297C184.958 8.39631 184.844 8.52297 184.616 8.52297H178.954Z" fill="#8B5E3C"/>
<path d="M164.659 31C164.368 31 164.115 30.8923 163.899 30.677L160.099 26.877C159.897 26.6743 159.795 26.421 159.795 26.117V14.983C159.795 14.679 159.897 14.4256 160.099 14.223L163.899 10.423C164.115 10.2076 164.368 10.1 164.659 10.1H174.824C175.141 10.1 175.299 10.2583 175.299 10.575V30.525C175.299 30.8416 175.141 31 174.824 31H170.53C170.366 31 170.233 30.9746 170.131 30.924C170.043 30.8606 169.948 30.7783 169.846 30.677L168.896 29.727L167.946 30.677C167.744 30.8923 167.49 31 167.186 31H164.659ZM167.148 25.794H167.965C168.307 25.794 168.548 25.718 168.687 25.566C168.827 25.4013 168.896 25.148 168.896 24.806V15.306H167.167C166.813 15.306 166.559 15.3883 166.407 15.553C166.268 15.705 166.198 15.952 166.198 16.294V24.806C166.198 25.148 166.268 25.4013 166.407 25.566C166.559 25.718 166.806 25.794 167.148 25.794Z" fill="#8B5E3C"/>
<path d="M147.803 31C147.487 31 147.328 30.8416 147.328 30.525V10.575C147.328 10.2583 147.487 10.1 147.803 10.1H151.527C151.755 10.1 151.964 10.2076 152.154 10.423L153.617 12.076L155.289 10.328C155.441 10.176 155.631 10.1 155.859 10.1H157.645C157.962 10.1 158.12 10.2583 158.12 10.575V15.648C158.12 15.8506 158.108 15.99 158.082 16.066C158.057 16.1293 157.987 16.199 157.873 16.275L153.731 19.239V30.525C153.731 30.8416 153.573 31 153.256 31H147.803Z" fill="#8B5E3C"/>
<path d="M134.132 31C133.815 31 133.657 30.8416 133.657 30.525V11.772H130.807C130.49 11.772 130.332 11.6136 130.332 11.297V6.14797C130.332 5.83131 130.49 5.67297 130.807 5.67297H143.518C143.835 5.67297 143.993 5.83131 143.993 6.14797V11.297C143.993 11.6136 143.835 11.772 143.518 11.772H140.649V30.525C140.649 30.8416 140.491 31 140.174 31H134.132Z" fill="#8B5E3C"/>
<path d="M115.237 31C114.92 31 114.762 30.8416 114.762 30.525V6.14797C114.762 5.83131 114.92 5.67297 115.237 5.67297H120.69C121.006 5.67297 121.165 5.83131 121.165 6.14797V30.525C121.165 30.8416 121.006 31 120.69 31H115.237Z" fill="#8B5E3C"/>
<path d="M105.721 31C105.405 31 105.246 30.8417 105.246 30.525V10.575C105.246 10.2583 105.405 10.1 105.721 10.1H111.155C111.472 10.1 111.63 10.2583 111.63 10.575V30.525C111.63 30.8417 111.472 31 111.155 31H105.721ZM107.5 6.50002C107.247 6.50002 108.5 8.39633 108.5 8.143L107.5 6.50002C107.5 6.24669 107.247 6.67803 107.5 6.67803L109.5 7.50002C109.728 7.50002 107.5 6.24669 107.5 6.50002L109.238 8.143C106.108 7.00002 108.228 7.50002 108 7.50002L107.5 6.50002Z" fill="#8B5E3C"/>
<path d="M91.3329 31C91.0415 31 90.7882 30.8923 90.5729 30.677L86.7729 26.877C86.5702 26.6743 86.4689 26.421 86.4689 26.117V10.575C86.4689 10.2583 86.6272 10.1 86.9439 10.1H92.3969C92.7135 10.1 92.8719 10.2583 92.8719 10.575V24.483C92.8719 25.053 93.1505 25.338 93.7079 25.338H95.5699V10.575C95.5699 10.2583 95.7282 10.1 96.0449 10.1H101.498C101.815 10.1 101.973 10.2583 101.973 10.575V30.525C101.973 30.8416 101.815 31 101.498 31H91.3329Z" fill="#8B5E3C"/>
<path d="M77.2675 36.7C76.9509 36.7 76.7925 36.5416 76.7925 36.225V29.727L75.8425 30.677C75.6272 30.8923 75.3739 31 75.0825 31H72.5555C72.2642 31 72.0109 30.8923 71.7955 30.677L67.9955 26.877C67.7929 26.6743 67.6915 26.421 67.6915 26.117V14.983C67.6915 14.679 67.7929 14.4256 67.9955 14.223L71.7955 10.423C72.0109 10.2076 72.2642 10.1 72.5555 10.1H82.7205C83.0372 10.1 83.1955 10.2583 83.1955 10.575V36.225C83.1955 36.5416 83.0372 36.7 82.7205 36.7H77.2675ZM75.0255 25.794H75.8425C76.1972 25.794 76.4442 25.718 76.5835 25.566C76.7229 25.4013 76.7925 25.148 76.7925 24.806V15.306H75.0445C74.7025 15.306 74.4555 15.3883 74.3035 15.553C74.1642 15.705 74.0945 15.952 74.0945 16.294V24.806C74.0945 25.148 74.1642 25.4013 74.3035 25.566C74.4555 25.718 74.6962 25.794 75.0255 25.794Z" fill="#8B5E3C"/>
<path d="M49.3892 31C49.0725 31 48.9142 30.8416 48.9142 30.525V10.575C48.9142 10.2583 49.0725 10.1 49.3892 10.1H59.5542C59.8455 10.1 60.0988 10.2076 60.3142 10.423L64.1142 14.223C64.3169 14.4256 64.4182 14.679 64.4182 14.983V30.525C64.4182 30.8416 64.2599 31 63.9432 31H58.4902C58.1735 31 58.0152 30.8416 58.0152 30.525V16.617C58.0152 16.047 57.7302 15.762 57.1602 15.762H55.3172V30.525C55.3172 30.8416 55.1588 31 54.8422 31H49.3892Z" fill="#8B5E3C"/>
<path d="M34.9991 31C34.7077 31 34.4544 30.8923 34.2391 30.677L30.4391 26.877C30.2364 26.6743 30.1351 26.421 30.1351 26.117V14.983C30.1351 14.679 30.2364 14.4256 30.4391 14.223L34.2391 10.423C34.4544 10.2076 34.7077 10.1 34.9991 10.1H45.1641C45.4807 10.1 45.6391 10.2583 45.6391 10.575V30.525C45.6391 30.8416 45.4807 31 45.1641 31H40.8701C40.7054 31 40.5724 30.9746 40.4711 30.924C40.3824 30.8606 40.2874 30.7783 40.1861 30.677L39.2361 29.727L38.2861 30.677C38.0834 30.8923 37.8301 31 37.5261 31H34.9991ZM37.4881 25.794H38.3051C38.6471 25.794 38.8877 25.718 39.0271 25.566C39.1664 25.4013 39.2361 25.148 39.2361 24.806V15.306H37.5071C37.1524 15.306 36.8991 15.3883 36.7471 15.553C36.6077 15.705 36.5381 15.952 36.5381 16.294V24.806C36.5381 25.148 36.6077 25.4013 36.7471 25.566C36.8991 25.718 37.1461 25.794 37.4881 25.794Z" fill="#8B5E3C"/>
<path d="M18.1431 31C17.8264 31 17.6681 30.8416 17.6681 30.525V10.575C17.6681 10.2583 17.8264 10.1 18.1431 10.1H21.8671C22.0951 10.1 22.3041 10.2076 22.4941 10.423L23.9571 12.076L25.6291 10.328C25.7811 10.176 25.9711 10.1 26.1991 10.1H27.9851C28.3018 10.1 28.4601 10.2583 28.4601 10.575V15.648C28.4601 15.8506 28.4474 15.99 28.4221 16.066C28.3968 16.1293 28.3271 16.199 28.2131 16.275L24.0711 19.239V30.525C24.0711 30.8416 23.9128 31 23.5961 31H18.1431Z" fill="#8B5E3C"/>
<path d="M4.472 31C4.15533 31 3.997 30.8416 3.997 30.525V11.772H1.147C0.83033 11.772 0.671997 11.6136 0.671997 11.297V6.14797C0.671997 5.83131 0.83033 5.67297 1.147 5.67297H13.858C14.1747 5.67297 14.333 5.83131 14.333 6.14797V11.297C14.333 11.6136 14.1747 11.772 13.858 11.772H10.989V30.525C10.989 30.8416 10.8307 31 10.514 31H4.472Z" fill="#8B5E3C"/>
<g clip-path="url(#clip0_98_114)">
<path d="M111.815 1.7287C111.623 1.53708 111.396 1.38507 111.146 1.28136C110.895 1.17765 110.627 1.12427 110.356 1.12427C110.085 1.12427 109.817 1.17765 109.567 1.28136C109.316 1.38507 109.089 1.53708 108.897 1.7287L108.5 2.1262L108.102 1.7287C107.716 1.34182 107.191 1.12447 106.644 1.12447C106.097 1.12447 105.572 1.34182 105.185 1.7287C104.798 2.11559 104.581 2.64031 104.581 3.18745C104.581 3.73459 104.798 4.25932 105.185 4.6462L108.5 7.9612L111.815 4.6462C112.007 4.45467 112.159 4.22726 112.262 3.97696C112.366 3.72666 112.419 3.45838 112.419 3.18745C112.419 2.91652 112.366 2.64824 112.262 2.39794C112.159 2.14765 112.007 1.92024 111.815 1.7287Z" stroke="#8B5E3C" stroke-width="0.916667" stroke-linecap="round" stroke-linejoin="round"/>
</g>
<defs>
<clipPath id="clip0_98_114">
<rect width="9" height="9" fill="white" transform="translate(104)"/>
</clipPath>
</defs>
</svg>
